<svg version="1.1" id="Layer_1" xmlns="http://www.w3.org/2000/svg" xmlns:xlink="http://www.w3.org/1999/xlink" x="0px" y="0px"
	 width="100%" viewBox="0 0 1200 1200" enable-background="new 0 0 1200 1200" xml:space="preserve">
<path fill="#000000" opacity="1.000000" stroke="none" 
	d="
M1112.000000,1201.000000 
	C741.333313,1201.000000 371.166656,1201.000000 1.000000,1201.000000 
	C1.000000,801.000000 1.000000,401.000000 1.000000,1.000000 
	C401.000000,1.000000 801.000000,1.000000 1201.000000,1.000000 
	C1201.000000,401.000000 1201.000000,801.000000 1201.000000,1201.000000 
	C1171.500000,1201.000000 1142.000000,1201.000000 1112.000000,1201.000000 
M624.500000,655.003662 
	C644.929810,655.003662 665.359619,655.003662 685.715332,655.003662 
	C685.715332,618.356140 685.715332,582.284180 685.715332,546.283752 
	C590.356201,546.283752 495.285736,546.283752 400.284668,546.283752 
	C400.284668,582.643860 400.284668,618.715759 400.284668,655.003662 
	C474.881897,655.003662 549.190979,655.003662 624.500000,655.003662 
M734.504517,631.997131 
	C733.991699,634.514771 733.478882,637.032471 732.874451,639.999939 
	C735.925415,639.999939 738.735291,639.865112 741.526306,640.036377 
	C744.566162,640.222900 745.563660,639.272095 746.161194,635.974670 
	C748.250427,624.445374 751.003540,613.036377 753.504395,601.581665 
	C753.765686,601.611389 754.026917,601.641113 754.288208,601.670776 
	C753.512634,614.401489 752.737000,627.132202 751.961426,639.862854 
	C752.374146,640.250183 752.786804,640.637451 753.199463,641.024780 
	C755.453064,639.784119 758.718323,639.091064 759.748291,637.188110 
	C761.846680,633.311096 762.636902,628.744690 764.153625,624.529785 
	C766.450500,618.146729 768.907349,611.821289 771.296265,605.471375 
	C771.628052,605.575623 771.959778,605.679932 772.291565,605.784241 
	C769.914917,617.078003 767.538330,628.371826 765.124512,639.842407 
	C769.385742,639.842407 773.505371,639.842407 777.666565,639.842407 
	C783.221069,613.622864 788.745361,587.546021 794.331848,561.175537 
	C788.576782,561.175537 783.456116,561.175537 778.514526,561.175537 
	C773.794922,572.750854 769.133606,584.183105 764.500305,595.546692 
	C764.500305,584.045349 764.500305,572.586060 764.500305,561.146729 
	C759.370361,561.146729 754.408386,561.146729 749.568237,561.146729 
	C746.475525,575.616760 743.375122,589.913147 740.376160,604.230774 
	C738.492737,613.222351 736.761719,622.245911 734.504517,631.997131 
M822.538025,594.973633 
	C821.411682,599.829834 820.091614,604.651062 819.205688,609.550781 
	C817.967407,616.398926 816.663818,623.275452 816.127930,630.197144 
	C815.727539,635.368835 820.348877,640.447510 824.797485,640.996765 
	C836.929749,642.494751 844.825745,637.940430 847.871826,625.946411 
	C851.831665,610.354919 854.662476,594.478210 858.056091,578.740845 
	C859.778259,570.754333 858.033264,564.750366 852.971130,561.982056 
	C848.033142,559.281677 837.704529,561.057739 833.279480,565.197449 
	C824.819397,573.112000 825.052979,584.063660 822.538025,594.973633 
M202.997223,588.394897 
	C204.276382,582.950256 203.884476,576.815247 209.613419,572.224915 
	C213.012787,578.826721 207.975479,584.230835 208.718689,589.852417 
	C212.984009,589.852417 217.287567,589.852417 222.321915,589.852417 
	C222.886032,583.492859 223.683426,577.223328 223.922424,570.932495 
	C224.107315,566.065857 220.789261,561.858215 216.894653,561.022095 
	C205.591263,558.595215 194.763519,564.746155 192.116257,575.958191 
	C188.083252,593.039246 184.543976,610.241699 181.072540,627.448547 
	C179.468765,635.398132 184.495453,641.109741 192.578156,640.955383 
	C196.785187,640.875061 200.997849,639.947693 205.181671,640.104553 
	C209.682526,640.273254 211.945526,639.428528 212.212570,634.166504 
	C212.469742,629.099487 214.346405,624.121582 215.435333,619.088013 
	C216.710861,613.192078 217.904007,607.278259 219.169083,601.198364 
	C212.762711,601.198364 206.981171,601.198364 201.237549,601.198364 
	C200.619354,604.491699 200.038345,607.586975 199.429581,610.830139 
	C200.894363,610.957458 202.330078,611.082214 203.850342,611.214355 
	C201.166992,617.541626 203.309006,625.444824 196.043442,629.873962 
	C195.738480,615.890442 200.235397,602.717346 202.997223,588.394897 
M926.038879,575.594604 
	C927.777100,570.883362 929.515259,566.172058 931.423462,561.000000 
	C927.955811,561.000000 925.279236,561.231018 922.659546,560.943665 
	C919.091614,560.552124 917.814392,561.867065 916.704041,565.399048 
	C912.981201,577.240845 908.606689,588.877747 904.481689,600.593079 
	C904.260437,600.562073 904.039185,600.531067 903.817932,600.500061 
	C904.877625,587.429688 905.937317,574.359314 906.999207,561.261292 
	C902.387939,561.261292 898.309509,561.261292 894.083008,561.261292 
	C892.489441,587.531677 890.911133,613.551636 889.318848,639.802307 
	C893.600464,639.802307 898.427551,640.825745 902.351074,639.386353 
	C904.426819,638.624817 904.930847,633.578552 906.143799,630.466370 
	C906.434265,629.721252 906.734985,628.979797 907.009644,628.228882 
	C913.328674,610.953796 919.644775,593.677612 926.038879,575.594604 
M271.000122,590.410400 
	C272.155029,584.956604 273.309967,579.502869 274.475311,573.999878 
	C278.560394,573.999878 282.396454,574.186340 286.196381,573.897461 
	C287.503448,573.798096 289.510162,572.758362 289.832855,571.723022 
	C290.873627,568.383911 291.279083,564.846802 292.001984,561.000000 
	C284.667633,561.000000 277.521057,561.228088 270.397614,560.920166 
	C265.617676,560.713562 263.758362,561.610657 262.680450,567.205994 
	C258.007202,591.464294 252.334229,615.530029 246.951248,640.000000 
	C254.694870,640.000000 262.008392,639.901611 269.317413,640.039734 
	C273.207977,640.113281 276.776855,640.494690 276.204315,634.665039 
	C276.000397,632.588684 277.134430,630.380859 277.741333,627.889771 
	C272.725067,627.889771 267.942108,627.889771 263.041626,627.889771 
	C264.574554,620.713074 266.038849,613.857605 267.487610,607.075012 
	C277.748932,606.866150 277.740875,606.864319 280.047211,596.845581 
	C280.241516,596.001648 280.641724,595.205139 281.109528,593.947815 
	C277.179626,593.947815 273.749634,593.947815 270.337616,593.947815 
	C270.606140,592.859192 270.802124,592.064636 271.000122,590.410400 
M999.539185,626.972412 
	C998.603699,631.159668 997.668152,635.346924 996.628540,640.000000 
	C1001.764526,640.000000 1006.236511,640.000000 1010.708557,640.000000 
	C1015.350830,640.000000 1019.993164,640.000000 1024.641968,640.000000 
	C1025.526489,635.907043 1026.344971,632.120117 1027.235352,628.000000 
	C1024.263550,628.000000 1022.111633,628.000000 1019.959717,628.000000 
	C1017.669312,628.000000 1015.378845,628.000000 1012.396606,628.000000 
	C1013.366333,624.094482 1014.344604,620.854919 1014.959595,617.547729 
	C1016.882202,607.209412 1016.828979,607.202454 1026.830688,606.959839 
	C1027.136841,606.952393 1027.437988,606.741516 1027.770142,606.614502 
	C1028.565674,602.562622 1029.361694,598.507263 1030.239746,594.034424 
	C1026.611450,594.034424 1023.496704,594.034424 1019.754211,594.034424 
	C1021.095215,587.681274 1022.229980,581.737061 1023.718811,575.882874 
	C1023.934631,575.034241 1025.819336,574.154053 1026.979248,574.085083 
	C1030.782471,573.858887 1034.607422,574.000122 1038.702515,574.000122 
	C1039.584229,569.713013 1040.433838,565.581787 1041.338867,561.180908 
	C1031.494995,561.180908 1022.388977,561.180908 1013.391052,561.180908 
	C1010.977783,572.387146 1008.534546,583.383545 1006.256042,594.414062 
	C1004.070435,604.994934 1002.055786,615.611023 999.539185,626.972412 
M324.864227,561.000061 
	C323.581085,562.098633 321.638580,562.964050 321.150635,564.343811 
	C320.101471,567.310608 319.801544,570.542297 319.097595,574.166687 
	C322.807709,574.166687 326.356659,574.166687 329.893188,574.166687 
	C325.202057,596.300476 320.610809,617.963074 315.940430,639.999023 
	C319.808655,639.999023 323.300781,640.183289 326.753235,639.893921 
	C327.882416,639.799255 329.534607,638.677734 329.864197,637.671021 
	C330.860687,634.627502 331.342957,631.413635 331.994904,628.259705 
	C335.731659,610.182861 339.459473,592.104187 343.007874,574.910217 
	C347.281616,573.974609 351.932373,574.307800 353.900665,572.170532 
	C356.168518,569.708008 356.067047,565.063538 357.086517,561.000000 
	C346.409088,561.000000 336.103882,561.000000 324.864227,561.000061 
M974.002808,576.604736 
	C975.076782,571.515686 976.150757,566.426636 977.271484,561.115967 
	C972.442810,561.115967 968.472717,561.115967 964.078186,561.115967 
	C958.499084,587.353149 952.925049,613.566833 947.331604,639.871460 
	C951.909180,639.871460 956.216003,639.871460 960.659912,639.871460 
	C965.120056,619.010315 969.560059,598.243713 974.002808,576.604736 
z"/>
<path fill="#FDFDFD" opacity="1.000000" stroke="none" 
	d="
M624.000000,655.003662 
	C549.190979,655.003662 474.881897,655.003662 400.284668,655.003662 
	C400.284668,618.715759 400.284668,582.643860 400.284668,546.283752 
	C495.285736,546.283752 590.356201,546.283752 685.715332,546.283752 
	C685.715332,582.284180 685.715332,618.356140 685.715332,655.003662 
	C665.359619,655.003662 644.929810,655.003662 624.000000,655.003662 
M652.503235,609.605530 
	C653.174622,606.682495 652.933777,602.953979 654.678223,600.978516 
	C661.543762,593.203918 663.993591,584.125549 663.639099,574.210083 
	C663.368591,566.644592 658.781433,562.456055 651.086975,562.026672 
	C646.447510,561.767761 641.781738,561.979004 636.720886,561.979004 
	C631.214905,587.925293 625.734253,613.752258 620.222290,639.726685 
	C624.234802,639.726685 627.829651,639.726685 631.518677,639.726685 
	C633.637451,629.712280 635.638733,619.932983 637.848633,610.201111 
	C638.133728,608.945679 639.499390,607.935608 640.364502,606.811890 
	C640.630188,607.112366 640.895935,607.412781 641.161621,607.713257 
	C641.161621,618.442444 641.161621,629.171631 641.161621,639.729370 
	C644.797119,639.729370 648.238770,639.729370 652.503113,639.729370 
	C652.503113,629.826660 652.503113,620.198364 652.503235,609.605530 
M572.773071,594.375305 
	C575.011841,583.702820 577.250610,573.030334 579.520203,562.210632 
	C575.443604,562.210632 571.845886,562.210632 568.228271,562.210632 
	C565.095764,576.946106 561.979126,591.426086 558.951660,605.924622 
	C557.456299,613.085693 555.531677,620.226318 554.864319,627.474060 
	C553.950562,637.397583 560.769165,642.797852 570.428406,640.480713 
	C579.510132,638.302185 583.647888,631.525146 585.731445,623.170471 
	C587.220642,617.199036 588.343689,611.135864 589.615662,605.110596 
	C592.623535,590.862427 595.622864,576.612427 598.653870,562.229309 
	C594.581482,562.229309 590.984619,562.229309 587.349609,562.229309 
	C585.533447,570.786438 583.779846,579.083557 582.010498,587.377197 
	C579.406189,599.584778 576.848999,611.802917 574.137573,623.986694 
	C573.479248,626.945129 572.214172,630.364685 568.464233,629.271118 
	C567.345215,628.944763 566.533997,624.755920 566.917786,622.571533 
	C568.529541,613.397644 570.647705,604.312683 572.773071,594.375305 
M489.056122,636.243286 
	C492.322876,640.704224 496.946533,641.665466 501.939819,640.671936 
	C511.505035,638.768616 516.077881,631.893677 518.080322,623.068542 
	C521.133362,609.612976 523.926086,596.097717 526.742065,582.589539 
	C527.349426,579.676086 527.903564,576.688538 527.933960,573.729492 
	C528.030029,564.373901 521.602905,559.193481 512.513489,561.323425 
	C503.227722,563.499329 498.961975,570.386353 497.054047,579.005066 
	C493.784546,593.774353 490.505981,608.550476 487.765747,623.422180 
	C487.055115,627.278870 488.327271,631.500793 489.056122,636.243286 
M436.546448,561.949402 
	C435.112274,562.040222 433.678101,562.131104 431.681549,562.257568 
	C433.693176,588.456726 436.115265,614.385742 426.197449,639.773926 
	C430.940216,639.773926 434.530334,639.773926 439.228760,639.773926 
	C440.396362,611.257568 454.893127,587.356079 466.440643,562.226929 
	C455.682770,561.442078 455.682007,561.441711 451.674011,570.465088 
	C450.458649,573.201355 449.258942,575.944519 448.033508,578.676208 
	C446.885193,581.235901 445.712341,583.784546 444.550323,586.338135 
	C444.058929,586.205566 443.567566,586.072998 443.076172,585.940430 
	C443.076172,578.043396 443.076172,570.146362 443.076172,561.949463 
	C440.776459,561.949463 439.137695,561.949463 436.546448,561.949402 
z"/>
<path fill="#FFFFFF" opacity="1.000000" stroke="none" 
	d="
M734.733398,631.626099 
	C736.761719,622.245911 738.492737,613.222351 740.376160,604.230774 
	C743.375122,589.913147 746.475525,575.616760 749.568237,561.146729 
	C754.408386,561.146729 759.370361,561.146729 764.500305,561.146729 
	C764.500305,572.586060 764.500305,584.045349 764.500305,595.546692 
	C769.133606,584.183105 773.794922,572.750854 778.514526,561.175537 
	C783.456116,561.175537 788.576782,561.175537 794.331848,561.175537 
	C788.745361,587.546021 783.221069,613.622864 777.666565,639.842407 
	C773.505371,639.842407 769.385742,639.842407 765.124512,639.842407 
	C767.538330,628.371826 769.914917,617.078003 772.291565,605.784241 
	C771.959778,605.679932 771.628052,605.575623 771.296265,605.471375 
	C768.907349,611.821289 766.450500,618.146729 764.153625,624.529785 
	C762.636902,628.744690 761.846680,633.311096 759.748291,637.188110 
	C758.718323,639.091064 755.453064,639.784119 753.199463,641.024780 
	C752.786804,640.637451 752.374146,640.250183 751.961426,639.862854 
	C752.737000,627.132202 753.512634,614.401489 754.288208,601.670776 
	C754.026917,601.641113 753.765686,601.611389 753.504395,601.581665 
	C751.003540,613.036377 748.250427,624.445374 746.161194,635.974670 
	C745.563660,639.272095 744.566162,640.222900 741.526306,640.036377 
	C738.735291,639.865112 735.925415,639.999939 732.874451,639.999939 
	C733.478882,637.032471 733.991699,634.514771 734.733398,631.626099 
z"/>
<path fill="#FFFFFF" opacity="1.000000" stroke="none" 
	d="
M822.751953,594.593506 
	C825.052979,584.063660 824.819397,573.112000 833.279480,565.197449 
	C837.704529,561.057739 848.033142,559.281677 852.971130,561.982056 
	C858.033264,564.750366 859.778259,570.754333 858.056091,578.740845 
	C854.662476,594.478210 851.831665,610.354919 847.871826,625.946411 
	C844.825745,637.940430 836.929749,642.494751 824.797485,640.996765 
	C820.348877,640.447510 815.727539,635.368835 816.127930,630.197144 
	C816.663818,623.275452 817.967407,616.398926 819.205688,609.550781 
	C820.091614,604.651062 821.411682,599.829834 822.751953,594.593506 
M833.997375,604.375305 
	C832.366943,611.388367 830.632019,618.380554 829.222534,625.437744 
	C829.019165,626.455933 830.380066,627.786499 831.017090,628.972473 
	C832.011597,628.312927 833.414001,627.873291 833.913513,626.946899 
	C834.878540,625.157104 835.522583,623.134583 835.968384,621.134705 
	C837.924866,612.359558 839.835388,603.572754 841.621216,594.761475 
	C843.065063,587.637146 844.307007,580.471985 845.757263,572.687805 
	C840.410828,574.235596 840.410828,574.235596 833.997375,604.375305 
z"/>
<path fill="#FFFFFF" opacity="1.000000" stroke="none" 
	d="
M202.979446,588.830566 
	C200.235397,602.717346 195.738480,615.890442 196.043442,629.873962 
	C203.309006,625.444824 201.166992,617.541626 203.850342,611.214355 
	C202.330078,611.082214 200.894363,610.957458 199.429581,610.830139 
	C200.038345,607.586975 200.619354,604.491699 201.237549,601.198364 
	C206.981171,601.198364 212.762711,601.198364 219.169083,601.198364 
	C217.904007,607.278259 216.710861,613.192078 215.435333,619.088013 
	C214.346405,624.121582 212.469742,629.099487 212.212570,634.166504 
	C211.945526,639.428528 209.682526,640.273254 205.181671,640.104553 
	C200.997849,639.947693 196.785187,640.875061 192.578156,640.955383 
	C184.495453,641.109741 179.468765,635.398132 181.072540,627.448547 
	C184.543976,610.241699 188.083252,593.039246 192.116257,575.958191 
	C194.763519,564.746155 205.591263,558.595215 216.894653,561.022095 
	C220.789261,561.858215 224.107315,566.065857 223.922424,570.932495 
	C223.683426,577.223328 222.886032,583.492859 222.321915,589.852417 
	C217.287567,589.852417 212.984009,589.852417 208.718689,589.852417 
	C207.975479,584.230835 213.012787,578.826721 209.613419,572.224915 
	C203.884476,576.815247 204.276382,582.950256 202.979446,588.830566 
z"/>
<path fill="#FFFFFF" opacity="1.000000" stroke="none" 
	d="
M926.000122,575.998169 
	C919.644775,593.677612 913.328674,610.953796 907.009644,628.228882 
	C906.734985,628.979797 906.434265,629.721252 906.143799,630.466370 
	C904.930847,633.578552 904.426819,638.624817 902.351074,639.386353 
	C898.427551,640.825745 893.600464,639.802307 889.318848,639.802307 
	C890.911133,613.551636 892.489441,587.531677 894.083008,561.261292 
	C898.309509,561.261292 902.387939,561.261292 906.999207,561.261292 
	C905.937317,574.359314 904.877625,587.429688 903.817932,600.500061 
	C904.039185,600.531067 904.260437,600.562073 904.481689,600.593079 
	C908.606689,588.877747 912.981201,577.240845 916.704041,565.399048 
	C917.814392,561.867065 919.091614,560.552124 922.659546,560.943665 
	C925.279236,561.231018 927.955811,561.000000 931.423462,561.000000 
	C929.515259,566.172058 927.777100,570.883362 926.000122,575.998169 
z"/>
<path fill="#FFFFFF" opacity="1.000000" stroke="none" 
	d="
M270.999115,590.840210 
	C270.802124,592.064636 270.606140,592.859192 270.337616,593.947815 
	C273.749634,593.947815 277.179626,593.947815 281.109528,593.947815 
	C280.641724,595.205139 280.241516,596.001648 280.047211,596.845581 
	C277.740875,606.864319 277.748932,606.866150 267.487610,607.075012 
	C266.038849,613.857605 264.574554,620.713074 263.041626,627.889771 
	C267.942108,627.889771 272.725067,627.889771 277.741333,627.889771 
	C277.134430,630.380859 276.000397,632.588684 276.204315,634.665039 
	C276.776855,640.494690 273.207977,640.113281 269.317413,640.039734 
	C262.008392,639.901611 254.694870,640.000000 246.951248,640.000000 
	C252.334229,615.530029 258.007202,591.464294 262.680450,567.205994 
	C263.758362,561.610657 265.617676,560.713562 270.397614,560.920166 
	C277.521057,561.228088 284.667633,561.000000 292.001984,561.000000 
	C291.279083,564.846802 290.873627,568.383911 289.832855,571.723022 
	C289.510162,572.758362 287.503448,573.798096 286.196381,573.897461 
	C282.396454,574.186340 278.560394,573.999878 274.475311,573.999878 
	C273.309967,579.502869 272.155029,584.956604 270.999115,590.840210 
z"/>
<path fill="#FFFFFF" opacity="1.000000" stroke="none" 
	d="
M999.752563,626.592041 
	C1002.055786,615.611023 1004.070435,604.994934 1006.256042,594.414062 
	C1008.534546,583.383545 1010.977783,572.387146 1013.391052,561.180908 
	C1022.388977,561.180908 1031.494995,561.180908 1041.338867,561.180908 
	C1040.433838,565.581787 1039.584229,569.713013 1038.702515,574.000122 
	C1034.607422,574.000122 1030.782471,573.858887 1026.979248,574.085083 
	C1025.819336,574.154053 1023.934631,575.034241 1023.718811,575.882874 
	C1022.229980,581.737061 1021.095215,587.681274 1019.754211,594.034424 
	C1023.496704,594.034424 1026.611450,594.034424 1030.239746,594.034424 
	C1029.361694,598.507263 1028.565674,602.562622 1027.770142,606.614502 
	C1027.437988,606.741516 1027.136841,606.952393 1026.830688,606.959839 
	C1016.828979,607.202454 1016.882202,607.209412 1014.959595,617.547729 
	C1014.344604,620.854919 1013.366333,624.094482 1012.396606,628.000000 
	C1015.378845,628.000000 1017.669312,628.000000 1019.959717,628.000000 
	C1022.111633,628.000000 1024.263550,628.000000 1027.235352,628.000000 
	C1026.344971,632.120117 1025.526489,635.907043 1024.641968,640.000000 
	C1019.993164,640.000000 1015.350830,640.000000 1010.708557,640.000000 
	C1006.236511,640.000000 1001.764526,640.000000 996.628540,640.000000 
	C997.668152,635.346924 998.603699,631.159668 999.752563,626.592041 
z"/>
<path fill="#FFFFFF" opacity="1.000000" stroke="none" 
	d="
M325.331451,561.000000 
	C336.103882,561.000000 346.409088,561.000000 357.086517,561.000000 
	C356.067047,565.063538 356.168518,569.708008 353.900665,572.170532 
	C351.932373,574.307800 347.281616,573.974609 343.007874,574.910217 
	C339.459473,592.104187 335.731659,610.182861 331.994904,628.259705 
	C331.342957,631.413635 330.860687,634.627502 329.864197,637.671021 
	C329.534607,638.677734 327.882416,639.799255 326.753235,639.893921 
	C323.300781,640.183289 319.808655,639.999023 315.940430,639.999023 
	C320.610809,617.963074 325.202057,596.300476 329.893188,574.166687 
	C326.356659,574.166687 322.807709,574.166687 319.097595,574.166687 
	C319.801544,570.542297 320.101471,567.310608 321.150635,564.343811 
	C321.638580,562.964050 323.581085,562.098633 325.331451,561.000000 
z"/>
<path fill="#FFFFFF" opacity="1.000000" stroke="none" 
	d="
M974.001404,577.040894 
	C969.560059,598.243713 965.120056,619.010315 960.659912,639.871460 
	C956.216003,639.871460 951.909180,639.871460 947.331604,639.871460 
	C952.925049,613.566833 958.499084,587.353149 964.078186,561.115967 
	C968.472717,561.115967 972.442810,561.115967 977.271484,561.115967 
	C976.150757,566.426636 975.076782,571.515686 974.001404,577.040894 
z"/>
<path fill="#070707" opacity="1.000000" stroke="none" 
	d="
M652.503174,610.087769 
	C652.503113,620.198364 652.503113,629.826660 652.503113,639.729370 
	C648.238770,639.729370 644.797119,639.729370 641.161621,639.729370 
	C641.161621,629.171631 641.161621,618.442444 641.161621,607.713257 
	C640.895935,607.412781 640.630188,607.112366 640.364502,606.811890 
	C639.499390,607.935608 638.133728,608.945679 637.848633,610.201111 
	C635.638733,619.932983 633.637451,629.712280 631.518677,639.726685 
	C627.829651,639.726685 624.234802,639.726685 620.222290,639.726685 
	C625.734253,613.752258 631.214905,587.925293 636.720886,561.979004 
	C641.781738,561.979004 646.447510,561.767761 651.086975,562.026672 
	C658.781433,562.456055 663.368591,566.644592 663.639099,574.210083 
	C663.993591,584.125549 661.543762,593.203918 654.678223,600.978516 
	C652.933777,602.953979 653.174622,606.682495 652.503174,610.087769 
M651.422485,586.490906 
	C651.729370,584.364624 652.210571,582.246094 652.306641,580.110352 
	C652.501648,575.775452 650.618225,573.235107 645.590881,573.272827 
	C643.993042,580.930725 642.421753,588.460999 640.789673,596.282776 
	C647.365479,596.147400 649.545593,592.010132 651.422485,586.490906 
z"/>
<path fill="#080808" opacity="1.000000" stroke="none" 
	d="
M572.676758,594.785278 
	C570.647705,604.312683 568.529541,613.397644 566.917786,622.571533 
	C566.533997,624.755920 567.345215,628.944763 568.464233,629.271118 
	C572.214172,630.364685 573.479248,626.945129 574.137573,623.986694 
	C576.848999,611.802917 579.406189,599.584778 582.010498,587.377197 
	C583.779846,579.083557 585.533447,570.786438 587.349609,562.229309 
	C590.984619,562.229309 594.581482,562.229309 598.653870,562.229309 
	C595.622864,576.612427 592.623535,590.862427 589.615662,605.110596 
	C588.343689,611.135864 587.220642,617.199036 585.731445,623.170471 
	C583.647888,631.525146 579.510132,638.302185 570.428406,640.480713 
	C560.769165,642.797852 553.950562,637.397583 554.864319,627.474060 
	C555.531677,620.226318 557.456299,613.085693 558.951660,605.924622 
	C561.979126,591.426086 565.095764,576.946106 568.228271,562.210632 
	C571.845886,562.210632 575.443604,562.210632 579.520203,562.210632 
	C577.250610,573.030334 575.011841,583.702820 572.676758,594.785278 
z"/>
<path fill="#080808" opacity="1.000000" stroke="none" 
	d="
M488.872437,635.899170 
	C488.327271,631.500793 487.055115,627.278870 487.765747,623.422180 
	C490.505981,608.550476 493.784546,593.774353 497.054047,579.005066 
	C498.961975,570.386353 503.227722,563.499329 512.513489,561.323425 
	C521.602905,559.193481 528.030029,564.373901 527.933960,573.729492 
	C527.903564,576.688538 527.349426,579.676086 526.742065,582.589539 
	C523.926086,596.097717 521.133362,609.612976 518.080322,623.068542 
	C516.077881,631.893677 511.505035,638.768616 501.939819,640.671936 
	C496.946533,641.665466 492.322876,640.704224 488.872437,635.899170 
M514.689575,586.192688 
	C515.331238,582.933350 516.239258,579.693787 516.482361,576.404968 
	C516.578613,575.103699 515.455200,572.882996 514.417053,572.550964 
	C513.288818,572.190247 511.371185,573.259949 510.254211,574.231018 
	C509.360840,575.007629 508.943665,576.525940 508.669891,577.791809 
	C505.333374,593.219849 501.972198,608.644226 498.906525,624.126770 
	C498.579681,625.777344 500.079346,627.789551 500.731720,629.634033 
	C502.469727,628.404968 504.469147,627.409546 505.851807,625.862793 
	C506.739868,624.869446 506.783813,623.078186 507.096985,621.621033 
	C509.575653,610.087830 512.028076,598.548889 514.689575,586.192688 
z"/>
<path fill="#070707" opacity="1.000000" stroke="none" 
	d="
M437.022705,561.949463 
	C439.137695,561.949463 440.776459,561.949463 443.076172,561.949463 
	C443.076172,570.146362 443.076172,578.043396 443.076172,585.940430 
	C443.567566,586.072998 444.058929,586.205566 444.550323,586.338135 
	C445.712341,583.784546 446.885193,581.235901 448.033508,578.676208 
	C449.258942,575.944519 450.458649,573.201355 451.674011,570.465088 
	C455.682007,561.441711 455.682770,561.442078 466.440643,562.226929 
	C454.893127,587.356079 440.396362,611.257568 439.228760,639.773926 
	C434.530334,639.773926 430.940216,639.773926 426.197449,639.773926 
	C436.115265,614.385742 433.693176,588.456726 431.681549,562.257568 
	C433.678101,562.131104 435.112274,562.040222 437.022705,561.949463 
z"/>
<path fill="#000000" opacity="1.000000" stroke="none" 
	d="
M833.998657,603.937622 
	C840.410828,574.235596 840.410828,574.235596 845.757263,572.687805 
	C844.307007,580.471985 843.065063,587.637146 841.621216,594.761475 
	C839.835388,603.572754 837.924866,612.359558 835.968384,621.134705 
	C835.522583,623.134583 834.878540,625.157104 833.913513,626.946899 
	C833.414001,627.873291 832.011597,628.312927 831.017090,628.972534 
	C830.380066,627.786499 829.019165,626.455933 829.222534,625.437744 
	C830.632019,618.380554 832.366943,611.388367 833.998657,603.937622 
z"/>
<path fill="#F2F2F2" opacity="1.000000" stroke="none" 
	d="
M651.305603,586.884521 
	C649.545593,592.010132 647.365479,596.147400 640.789673,596.282776 
	C642.421753,588.460999 643.993042,580.930725 645.590881,573.272827 
	C650.618225,573.235107 652.501648,575.775452 652.306641,580.110352 
	C652.210571,582.246094 651.729370,584.364624 651.305603,586.884521 
z"/>
<path fill="#F2F2F2" opacity="1.000000" stroke="none" 
	d="
M514.589111,586.602173 
	C512.028076,598.548889 509.575653,610.087830 507.096985,621.621033 
	C506.783813,623.078186 506.739868,624.869446 505.851807,625.862793 
	C504.469147,627.409546 502.469727,628.404968 500.731720,629.634033 
	C500.079346,627.789551 498.579681,625.777344 498.906525,624.126770 
	C501.972198,608.644226 505.333374,593.219849 508.669891,577.791809 
	C508.943665,576.525940 509.360840,575.007629 510.254211,574.231018 
	C511.371185,573.259949 513.288818,572.190247 514.417053,572.550964 
	C515.455200,572.882996 516.578613,575.103699 516.482361,576.404968 
	C516.239258,579.693787 515.331238,582.933350 514.589111,586.602173 
z"/>
</svg>